<?xml version="1.0" encoding="UTF-8" standalone="no"?>
<svg width="29px" height="23px" viewBox="0 0 29 23" version="1.1" xmlns="http://www.w3.org/2000/svg" xmlns:xlink="http://www.w3.org/1999/xlink">
    <!-- Generator: Sketch 47.1 (45422) - http://www.bohemiancoding.com/sketch -->
    <title>Group</title>
    <desc>Created with Sketch.</desc>
    <defs></defs>
    <g id="Symbols" stroke="none" stroke-width="1" fill="none" fill-rule="evenodd">
        <g id="Header-tablet" transform="translate(-21.000000, -673.000000)">
            <g id="noun_547392_cc" transform="translate(21.000000, 673.000000)">
                <g id="Group">
                    <path d="M23.8122222,4.07428571 L25.0688889,4.07428571 L25.0688889,9.69285714 L23.8122222,9.69285714 L23.8122222,4.07428571 Z M26.4544444,10.7771429 L26.4544444,12.2557143 L2.38444444,12.2557143 L2.38444444,10.7771429 L26.4544444,10.7771429 Z M21.2988889,4.07428571 L22.5555556,4.07428571 L22.5555556,9.69285714 L21.2988889,9.69285714 L21.2988889,4.07428571 Z M18.7855556,4.07428571 L20.0422222,4.07428571 L20.0422222,9.69285714 L18.7855556,9.69285714 L18.7855556,4.07428571 L18.7855556,4.07428571 Z M15.0477778,4.07428571 L17.5611111,4.07428571 L17.5611111,9.69285714 L15.0477778,9.69285714 L15.0477778,4.07428571 Z M12.5344444,4.07428571 L13.7911111,4.07428571 L13.7911111,9.69285714 L12.5344444,9.69285714 L12.5344444,4.07428571 Z M10.0533333,4.07428571 L11.31,4.07428571 L11.31,9.69285714 L10.0533333,9.69285714 L10.0533333,4.07428571 Z M6.28333333,4.07428571 L8.79666667,4.07428571 L8.79666667,9.69285714 L6.28333333,9.69285714 L6.28333333,4.07428571 L6.28333333,4.07428571 Z M5.05888889,9.69285714 L3.80222222,9.69285714 L3.80222222,4.07428571 L5.05888889,4.07428571 L5.05888889,9.69285714 Z M0,0 L4.44666667,0 L4.44666667,1.24857143 L1.22444444,1.24857143 L1.22444444,4.53428571 L0,4.53428571 L0,0 Z M4.44666667,23 L0,23 L0,18.4657143 L1.25666667,18.4657143 L1.25666667,21.7514286 L4.47888889,21.7514286 L4.47888889,23 L4.44666667,23 Z M5.05888889,19.09 L3.80222222,19.09 L3.80222222,13.4385714 L5.05888889,13.4385714 L5.05888889,19.09 Z M8.79666667,19.09 L6.28333333,19.09 L6.28333333,13.4385714 L8.79666667,13.4385714 L8.79666667,19.09 Z M11.31,19.09 L10.0533333,19.09 L10.0533333,13.4385714 L11.31,13.4385714 L11.31,19.09 Z M13.7911111,19.09 L12.5344444,19.09 L12.5344444,13.4385714 L13.7911111,13.4385714 L13.7911111,19.09 Z M17.5611111,19.09 L15.0477778,19.09 L15.0477778,13.4385714 L17.5611111,13.4385714 L17.5611111,19.09 Z M20.0422222,19.09 L18.7855556,19.09 L18.7855556,13.4385714 L20.0422222,13.4385714 L20.0422222,19.09 Z M22.5555556,19.09 L21.2988889,19.09 L21.2988889,13.4385714 L22.5555556,13.4385714 L22.5555556,19.09 Z M23.8122222,13.4385714 L25.0688889,13.4385714 L25.0688889,19.0571429 L23.8122222,19.0571429 L23.8122222,13.4385714 Z M29,23 L24.5533333,23 L24.5533333,21.7514286 L27.7755556,21.7514286 L27.7755556,18.4657143 L29,18.4657143 L29,23 Z M29,4.53428571 L27.7433333,4.53428571 L27.7433333,1.24857143 L24.5211111,1.24857143 L24.5211111,0 L29,0 L29,4.53428571 Z" id="Shape"></path>
                    <rect id="Rectangle-path" fill="#000000" fill-rule="nonzero" x="10.0533333" y="4.07428571" width="1.25666667" height="5.61857143"></rect>
                    <rect id="Rectangle-path" fill="#000000" fill-rule="nonzero" x="6.28333333" y="4.07428571" width="2.51333333" height="5.61857143"></rect>
                    <rect id="Rectangle-path" fill="#000000" fill-rule="nonzero" x="6.28333333" y="13.4385714" width="2.51333333" height="5.61857143"></rect>
                    <rect id="Rectangle-path" fill="#000000" fill-rule="nonzero" x="3.80222222" y="13.4385714" width="1.25666667" height="5.61857143"></rect>
                    <rect id="Rectangle-path" fill="#000000" fill-rule="nonzero" x="3.80222222" y="4.07428571" width="1.25666667" height="5.61857143"></rect>
                    <rect id="Rectangle-path" fill="#000000" fill-rule="nonzero" x="21.2988889" y="4.07428571" width="1.25666667" height="5.61857143"></rect>
                    <rect id="Rectangle-path" fill="#000000" fill-rule="nonzero" x="15.0477778" y="4.07428571" width="2.51333333" height="5.61857143"></rect>
                    <rect id="Rectangle-path" fill="#000000" fill-rule="nonzero" x="12.5344444" y="4.07428571" width="1.25666667" height="5.61857143"></rect>
                    <rect id="Rectangle-path" fill="#000000" fill-rule="nonzero" x="18.7855556" y="4.07428571" width="1.25666667" height="5.61857143"></rect>
                    <rect id="Rectangle-path" fill="#000000" fill-rule="nonzero" x="21.2988889" y="13.4385714" width="1.25666667" height="5.61857143"></rect>
                    <rect id="Rectangle-path" fill="#000000" fill-rule="nonzero" x="23.8122222" y="13.4385714" width="1.25666667" height="5.61857143"></rect>
                    <rect id="Rectangle-path" fill="#000000" fill-rule="nonzero" x="10.0533333" y="13.4385714" width="1.25666667" height="5.61857143"></rect>
                    <rect id="Rectangle-path" fill="#000000" fill-rule="nonzero" x="18.7855556" y="13.4385714" width="1.25666667" height="5.61857143"></rect>
                    <rect id="Rectangle-path" fill="#000000" fill-rule="nonzero" x="23.8122222" y="4.07428571" width="1.25666667" height="5.61857143"></rect>
                    <rect id="Rectangle-path" fill="#000000" fill-rule="nonzero" x="15.0477778" y="13.4385714" width="2.51333333" height="5.61857143"></rect>
                    <rect id="Rectangle-path" fill="#000000" fill-rule="nonzero" x="12.5344444" y="13.4385714" width="1.25666667" height="5.61857143"></rect>
                    <rect id="Rectangle-path" fill="#000000" fill-rule="nonzero" x="2.38444444" y="10.7771429" width="24.07" height="1.47857143"></rect>
                    <polygon id="Shape" fill="#000000" fill-rule="nonzero" points="1.25666667 1.24857143 4.44666667 1.24857143 4.44666667 0 0 0 0 4.53428571 1.25666667 4.53428571"></polygon>
                    <polygon id="Shape" fill="#000000" fill-rule="nonzero" points="24.5533333 1.24857143 27.7433333 1.24857143 27.7433333 4.53428571 29 4.53428571 29 0 24.5533333 0"></polygon>
                    <polygon id="Shape" fill="#000000" fill-rule="nonzero" points="1.25666667 18.4657143 0 18.4657143 0 23 4.44666667 23 4.44666667 21.7514286 1.25666667 21.7514286"></polygon>
                    <polygon id="Shape" fill="#000000" fill-rule="nonzero" points="27.7433333 21.7514286 24.5533333 21.7514286 24.5533333 23 29 23 29 18.4657143 27.7433333 18.4657143"></polygon>
                </g>
            </g>
        </g>
    </g>
</svg>