<?xml version="1.0" encoding="UTF-8" standalone="no"?>
<svg width="24px" height="24px" viewBox="0 0 24 24" version="1.1" xmlns="http://www.w3.org/2000/svg" xmlns:xlink="http://www.w3.org/1999/xlink">
    <!-- Generator: Sketch 47.1 (45422) - http://www.bohemiancoding.com/sketch -->
    <title>ic_search_24px</title>
    <desc>Created with Sketch.</desc>
    <defs></defs>
    <g id="Community" stroke="none" stroke-width="1" fill="none" fill-rule="evenodd">
        <g id="Tablet" transform="translate(-974.000000, -21.000000)" fill-rule="nonzero" fill="#444444">
            <g id="ic_search_24px" transform="translate(974.000000, 21.000000)">
                <path d="M17.1526587,15.0943396 L16.0686106,15.0943396 L15.6843911,14.7238422 C17.0291595,13.1595197 17.838765,11.1286449 17.838765,8.9193825 C17.838765,3.99313894 13.8456261,0 8.9193825,0 C3.99313894,0 0,3.99313894 0,8.9193825 C0,13.8456261 3.99313894,17.838765 8.9193825,17.838765 C11.1286449,17.838765 13.1595197,17.0291595 14.7238422,15.6843911 L15.0943396,16.0686106 L15.0943396,17.1526587 L21.9554031,24 L24,21.9554031 L17.1526587,15.0943396 Z M8.9193825,15.0943396 C5.5025729,15.0943396 2.74442539,12.3361921 2.74442539,8.9193825 C2.74442539,5.5025729 5.5025729,2.74442539 8.9193825,2.74442539 C12.3361921,2.74442539 15.0943396,5.5025729 15.0943396,8.9193825 C15.0943396,12.3361921 12.3361921,15.0943396 8.9193825,15.0943396 Z" id="Shape"></path>
            </g>
        </g>
    </g>
</svg>